<?xml version="1.0" encoding="utf-8"?>
<!-- Generator: Adobe Illustrator 25.3.1, SVG Export Plug-In . SVG Version: 6.00 Build 0)  -->
<svg version="1.1" id="Layer_1" xmlns="http://www.w3.org/2000/svg" xmlns:xlink="http://www.w3.org/1999/xlink" x="0px" y="0px"
	 viewBox="0 0 1366 768" style="enable-background:new 0 0 1366 768;" xml:space="preserve">
<style type="text/css">
	.st0{fill:#4064AC;}
	.st1{fill:#FFFFFF;}
</style>
<ellipse class="st0" cx="683.5" cy="325.5" rx="677.5" ry="307.5"/>
<g>
	<g>
		<path class="st1" d="M769.24,246.11c-104.57-8.45-166.63,121.45-45.59,157.9c38.49,8.12,75.1-11.17,74.9-11.77
			c-24.47,6.57-70.02,11.49-97.7-18.14C653.4,328.51,704.81,248.26,769.24,246.11z"/>
		<g>
			<polygon class="st1" points="751.89,307.59 742.45,303.31 733.3,308.1 734.77,298.43 727.04,291.83 737.38,290.14 741.75,281.26 
				746.68,289.88 757.12,291 749.81,298.02 			"/>
			<polygon class="st1" points="723.02,327.11 713.58,322.83 704.43,327.63 705.9,317.96 698.16,311.35 708.51,309.66 
				712.88,300.78 717.8,309.41 728.24,310.52 720.94,317.54 			"/>
			<polygon class="st1" points="781.06,327.11 771.62,322.83 762.47,327.63 763.94,317.96 756.2,311.35 766.55,309.66 
				770.92,300.78 775.85,309.41 786.28,310.52 778.98,317.54 			"/>
			<polygon class="st1" points="770.25,358.32 760.81,354.03 751.66,358.83 753.13,349.16 745.39,342.55 755.74,340.86 
				760.11,331.98 765.03,340.61 775.47,341.73 768.17,348.75 			"/>
			<polygon class="st1" points="733.83,358.32 724.39,354.03 715.24,358.83 716.71,349.16 708.97,342.55 719.32,340.86 
				723.69,331.98 728.61,340.61 739.05,341.73 731.75,348.75 			"/>
		</g>
	</g>
	<g>
		<path class="st1" d="M281.47,249h-2.99c-2.23-12.89-8.19-23.8-17.88-32.75c-9.69-8.95-20.82-15.48-33.38-19.6
			c-12.57-4.12-24.31-6.17-35.23-6.17c-14.92,0-28.92,3.19-42.02,9.58c-13.1,6.38-24.4,15.39-33.91,27.03
			c-9.51,11.63-16.91,25.59-22.2,41.88s-7.93,33.98-7.93,53.07c0,18.5,2.55,35.65,7.66,51.46c5.11,15.81,12.57,29.53,22.37,41.16
			c9.8,11.63,21.17,20.43,34.09,26.4c12.92,5.97,27.25,8.95,42.99,8.95c13.15,0,27.6-2.71,43.34-8.14
			c15.74-5.43,29.95-14.47,42.63-27.12v10.2c-15.62,12.29-29.92,21.3-42.9,27.03c-12.98,5.73-29.16,8.59-48.53,8.59
			c-20.44,0-39.08-3.79-55.93-11.37c-16.85-7.58-31.09-17.81-42.72-30.69C77.29,405.61,68.48,391.11,62.49,375
			s-8.98-32.69-8.98-49.76c0-25.65,6.22-49.49,18.67-71.5c12.45-22.01,29.3-39.43,50.56-52.26c21.26-12.82,44.33-19.24,69.23-19.24
			c15.38,0,31.77,2.33,49.15,6.98l18.32,5.19c3.52,0.72,6.52,1.07,8.98,1.07c4.58,0,7.63-0.68,9.16-2.06
			c1.52-1.37,2.7-3.85,3.52-7.43h2.82L281.47,249z"/>
		<path class="st1" d="M509,311v-88.51c0-8.62-2.27-15.68-6.83-21.18c-4.55-5.5-11.61-8.26-21.17-8.26V190h83v3.05
			c-9.69,0-16.78,2.72-21.27,8.15c-4.49,5.44-6.73,12.52-6.73,21.24V422.1c0,19.36,9.33,29.03,28,29.03V454h-83v-2.86
			c8.75,0,15.6-2.42,20.56-7.25c4.96-4.83,7.44-11.96,7.44-21.4V319H361v103.13c0,9.19,2.54,16.32,7.61,21.4
			c5.08,5.07,11.87,7.61,20.39,7.61V454h-83v-2.87c9.03,0,15.96-2.54,20.78-7.62c4.82-5.08,7.22-12.21,7.22-21.42V222.44
			c0-19.59-9.34-29.39-28-29.39V190h83v3.05c-9.69,0-16.77,2.72-21.26,8.17c-4.49,5.45-6.74,12.54-6.74,21.27V311H509z"/>
		<path class="st1" d="M869.14,321.98c0,24.73-6.03,47.74-18.08,69.01c-12.06,21.27-28.49,38.21-49.31,50.81
			s-43.87,18.91-69.16,18.91c-25.41,0-48.69-6.3-69.86-18.91c-21.17-12.61-37.84-29.6-50.02-50.99
			c-12.17-21.39-18.26-44.69-18.26-69.9c0-19.36,3.62-37.55,10.85-54.58c7.23-17.03,17.35-31.87,30.34-44.54
			c12.99-12.66,27.81-22.46,44.46-29.39c16.64-6.93,34.02-10.4,52.13-10.4c17.76,0,34.81,3.32,51.16,9.95
			c16.35,6.63,31.02,16.22,44.02,28.77c12.99,12.55,23.2,27.42,30.61,44.63C865.43,282.55,869.14,301.43,869.14,321.98z
			 M838.09,322.7c0-35.13-6.12-62.61-18.35-82.45c-12.23-19.83-26.35-33.13-42.34-39.88c-16-6.75-31.05-10.13-45.16-10.13
			c-10.94,0-22.29,1.82-34.05,5.47c-11.76,3.65-23.2,10.31-34.31,19.98c-11.11,9.68-20.26,23.3-27.43,40.87
			c-7.18,17.57-10.76,39.25-10.76,65.06c0,22.7,2.97,42.51,8.91,59.42c5.94,16.91,14.11,30.71,24.52,41.4
			c10.41,10.7,21.88,18.4,34.4,23.12c12.53,4.72,25.55,7.08,39.08,7.08c12.11,0,24.37-2.18,36.78-6.54
			c12.41-4.36,23.76-11.47,34.05-21.33c10.29-9.86,18.64-23.24,25.05-40.15C834.88,367.72,838.09,347.08,838.09,322.7z"/>
		<path class="st1" d="M902,193v-3h85.45c14.11,0,26.57,1.97,37.36,5.91c10.79,3.94,19.78,9.32,26.95,16.13
			c7.18,6.81,12.54,14.49,16.1,23.03c3.56,8.54,5.34,17.54,5.34,26.97c0,9.2-1.66,18.07-4.99,26.62
			c-3.33,8.54-8.55,16.13-15.66,22.76c-7.12,6.63-16.45,11.92-28,15.86c-11.55,3.94-24.85,5.91-39.9,5.91
			c-4.79,0-14-0.72-27.65-2.15v91.05c0,18.76,9.33,28.44,28,29.03V454h-83v-2.87c8.15-0.24,14.86-2.6,20.11-7.08
			c5.26-4.48,7.89-11.8,7.89-21.96V222.4c0-6.09-0.95-11.17-2.84-15.24c-1.89-4.06-4.11-6.96-6.65-8.69
			c-2.54-1.73-5.38-3.02-8.51-3.85c-3.13-0.83-5.29-1.37-6.47-1.61H902z M957,199.03v124.39c9.06,1.67,18,2.51,26.82,2.51
			c16.82,0,31.08-4.39,42.78-13.17c11.7-8.78,17.55-25.06,17.55-48.84c0-19.6-5.15-35.7-15.44-48.3
			c-10.29-12.61-25.91-18.91-46.84-18.91C973.76,196.7,965.47,197.48,957,199.03z"/>
		<path class="st1" d="M1097,193v-3h155v41h-2.46c0-22-14.53-33-43.59-33H1152v120h47.52c9.39,0,17.78-1.55,25.17-4.66
			c7.39-3.11,11.62-10.22,12.67-21.34h2.64v60h-2.64c-1.06-6.86-3.05-12.13-5.98-15.8c-2.93-3.67-5.84-6.11-8.71-7.31
			c-2.88-1.2-5.43-1.81-7.66-1.81c-4.22-0.72-8.62-1.08-13.2-1.08H1152v93.27c0,6.98,1.31,13.01,3.93,18.1
			c2.62,5.09,8.7,7.63,18.25,7.63h38.25c9.2,0,16.77-1.36,22.7-4.08c5.94-2.72,10.62-6.5,14.06-11.35
			c3.43-4.85,6.31-10.7,8.64-17.56h5.43l-9.13,42H1097v-3h3.57c5.59,0,11.06-2.27,16.41-6.81c5.35-4.54,8.03-11.94,8.03-22.22V223.1
			c0-8.12-1.81-15.17-5.44-21.14c-3.63-5.97-9.96-8.96-18.99-8.96H1097z"/>
	</g>
</g>
<g>
</g>
<g>
</g>
<g>
</g>
<g>
</g>
<g>
</g>
<g>
</g>
<g>
</g>
<g>
</g>
<g>
</g>
<g>
</g>
<g>
</g>
<g>
</g>
<g>
</g>
<g>
</g>
<g>
</g>
</svg>
